<?xml version="1.0" standalone="no"?>
<!DOCTYPE svg PUBLIC "-//W3C//DTD SVG 20010904//EN"
 "http://www.w3.org/TR/2001/REC-SVG-20010904/DTD/svg10.dtd">
<svg version="1.0" xmlns="http://www.w3.org/2000/svg"
 width="1324.000000pt" height="1324.000000pt" viewBox="0 0 1324.000000 1324.000000"
 preserveAspectRatio="xMidYMid meet">
<metadata>
Created by potrace 1.14, written by Peter Selinger 2001-2017
</metadata>
<g transform="translate(0.000000,1324.000000) scale(0.100000,-0.100000)"
fill="#000000" stroke="none">
<path d="M6319 13206 c-2 -2 -60 -7 -129 -11 -69 -4 -138 -8 -155 -10 -16 -2
-64 -7 -105 -11 -41 -3 -82 -8 -92 -9 -16 -3 -74 -11 -148 -21 -19 -2 -46 -6
-60 -9 -14 -2 -41 -7 -60 -9 -161 -24 -446 -83 -610 -128 -41 -11 -82 -21 -90
-23 -61 -12 -455 -138 -515 -164 -11 -5 -76 -30 -145 -57 -585 -222 -1203
-578 -1727 -996 -357 -285 -743 -669 -1012 -1008 -28 -36 -59 -74 -67 -84 -73
-87 -394 -544 -394 -561 0 -3 -19 -35 -43 -72 -107 -169 -255 -445 -362 -678
-55 -119 -141 -325 -155 -370 -7 -22 -16 -44 -20 -50 -12 -16 -145 -416 -184
-555 -32 -113 -70 -266 -82 -329 -3 -12 -11 -51 -19 -85 -8 -33 -16 -72 -19
-86 -2 -14 -11 -63 -20 -110 -18 -99 -23 -127 -32 -195 -3 -27 -7 -52 -9 -55
-2 -3 -6 -34 -10 -70 -4 -36 -9 -76 -11 -90 -1 -14 -6 -56 -9 -95 -4 -38 -8
-83 -10 -100 -26 -212 -27 -875 0 -1090 2 -22 7 -65 9 -95 11 -115 17 -166 22
-198 3 -17 7 -49 10 -70 19 -152 78 -470 108 -584 9 -32 18 -70 21 -85 15 -85
111 -407 177 -593 113 -320 305 -750 438 -985 13 -22 34 -60 48 -85 14 -25 43
-76 66 -113 22 -38 52 -87 65 -110 45 -77 204 -311 304 -447 86 -115 249 -324
267 -340 3 -3 23 -25 44 -50 401 -461 863 -869 1351 -1192 162 -107 340 -218
350 -218 3 0 22 -11 43 -23 146 -92 512 -272 762 -374 139 -57 468 -176 520
-188 8 -2 47 -14 85 -25 110 -34 361 -100 460 -121 104 -22 278 -58 315 -64
58 -9 248 -37 285 -41 22 -2 54 -6 70 -9 17 -2 62 -7 100 -11 39 -3 84 -8 100
-10 212 -26 889 -26 1140 0 17 2 66 6 110 10 44 4 87 9 95 11 8 2 42 6 75 10
78 8 335 49 440 70 17 3 39 8 50 9 324 58 959 259 1269 400 31 14 58 26 60 26
27 0 496 238 635 322 34 21 65 38 66 38 2 0 64 38 137 84 545 342 1031 753
1448 1226 36 40 70 78 76 84 24 26 226 279 293 370 152 204 360 528 474 736
39 71 229 445 226 445 -1 0 8 23 21 50 42 95 49 110 75 175 14 36 30 74 35 85
57 125 243 700 263 815 3 14 12 52 21 85 14 56 39 170 51 232 3 16 7 39 10 53
3 14 8 41 11 60 4 19 8 44 10 55 9 48 45 288 50 332 3 26 7 66 10 88 2 22 7
69 10 105 3 36 7 83 9 105 30 312 25 864 -10 1150 -4 28 -8 70 -11 95 -4 43
-8 76 -19 145 -3 17 -7 47 -10 68 -14 104 -56 329 -79 430 -8 36 -17 76 -20
88 -2 13 -16 69 -31 124 -15 55 -28 107 -30 115 -16 68 -142 466 -164 515 -5
11 -14 34 -20 50 -6 17 -16 44 -22 60 -7 17 -13 35 -14 40 -2 6 -12 32 -24 57
-11 26 -21 49 -21 52 0 2 -29 69 -64 148 -135 303 -275 566 -457 859 -67 106
-218 331 -246 364 -5 6 -26 35 -48 65 -22 30 -42 57 -45 60 -3 3 -29 36 -59
74 -57 74 -58 74 -152 186 -206 245 -460 501 -744 749 -95 84 -219 181 -470
369 -5 4 -30 21 -55 37 -25 17 -49 34 -55 38 -51 42 -344 221 -550 337 -82 47
-414 209 -520 255 -60 26 -123 53 -140 60 -55 24 -209 82 -315 120 -58 20
-112 39 -120 42 -40 14 -211 66 -257 79 -29 8 -79 21 -110 30 -55 15 -161 42
-193 49 -8 2 -45 10 -81 19 -37 8 -78 17 -90 20 -13 2 -62 11 -109 20 -47 8
-98 18 -115 20 -16 3 -41 8 -55 10 -14 3 -47 8 -75 11 -27 3 -57 8 -65 10 -16
4 -65 10 -160 20 -30 3 -68 8 -85 10 -16 2 -70 6 -120 10 -49 3 -106 9 -125
12 -42 6 -735 15 -741 9z"/>
</g>
</svg>
